HIERARCHY
ROOT Hips
{
  OFFSET 2.26061 22.2878 23.7974
  CHANNELS 6 Xposition Yposition Zposition Zrotation Xrotation Yrotation
  JOINT LeftUpLeg
  {
    OFFSET 8.64259 1.95398 -2.38835
    CHANNELS 3 Zrotation Xrotation Yrotation
    JOINT LeftLeg
    {
      OFFSET 43.7702 0 0
      CHANNELS 3 Zrotation Xrotation Yrotation
      JOINT LeftFoot
      {
        OFFSET 40.6238 0 0
        CHANNELS 3 Zrotation Xrotation Yrotation
        JOINT LeftToeBase
        {
          OFFSET 12.7242 0 0
          CHANNELS 3 Zrotation Xrotation Yrotation
          End Site
          {
            OFFSET 0 0 0
          }
        }
      }
    }
  }
  JOINT RightUpLeg
  {
    OFFSET -8.2249 1.95398 -2.59336
    CHANNELS 3 Zrotation Xrotation Yrotation
    JOINT RightLeg
    {
      OFFSET 43.5653 0 0
      CHANNELS 3 Zrotation Xrotation Yrotation
      JOINT RightFoot
      {
        OFFSET 40.6238 0 0
        CHANNELS 3 Zrotation Xrotation Yrotation
        JOINT RightToeBase
        {
          OFFSET 12.7242 0 0
          CHANNELS 3 Zrotation Xrotation Yrotation
          End Site
          {
            OFFSET 0 0 0
          }
        }
      }
    }
  }
  JOINT Spine
  {
    OFFSET 0.165834 0.87714 6.61349
    CHANNELS 3 Zrotation Xrotation Yrotation
    JOINT Spine1
    {
      OFFSET 7.38963 1.71661e-005 0
      CHANNELS 3 Zrotation Xrotation Yrotation
      JOINT Spine2
      {
        OFFSET 11.9445 1.14441e-005 0
        CHANNELS 3 Zrotation Xrotation Yrotation
        JOINT Spine3
        {
          OFFSET 14.7254 4.19617e-005 0
          CHANNELS 3 Zrotation Xrotation Yrotation
          JOINT Spine4
          {
            OFFSET 10.9679 0 0
            CHANNELS 3 Zrotation Xrotation Yrotation
            JOINT RightShoulder
            {
              OFFSET 2.46616 -1.6653 3.69651
              CHANNELS 3 Zrotation Xrotation Yrotation
              JOINT RightArm
              {
                OFFSET 13.0012 0 0
                CHANNELS 3 Zrotation Xrotation Yrotation
                JOINT RightForeArm
                {
                  OFFSET 28.7848 1.52588e-005 0
                  CHANNELS 3 Zrotation Xrotation Yrotation
                  JOINT RightHand
                  {
                    OFFSET 26.5688 1.52588e-005 0
                    CHANNELS 3 Zrotation Xrotation Yrotation
                    End Site
                    {
                      OFFSET 0 0 0
                    }
                  }
                }
              }
            }
            JOINT LeftShoulder
            {
              OFFSET 2.38034 -1.29275 -3.7523
              CHANNELS 3 Zrotation Xrotation Yrotation
              JOINT LeftArm
              {
                OFFSET 16.3182 6.10351e-005 0
                CHANNELS 3 Zrotation Xrotation Yrotation
                JOINT LeftForeArm
                {
                  OFFSET 27.0901 0 0
                  CHANNELS 3 Zrotation Xrotation Yrotation
                  JOINT LeftHand
                  {
                    OFFSET 24.5451 1.52588e-005 0
                    CHANNELS 3 Zrotation Xrotation Yrotation
                    End Site
                    {
                      OFFSET 0 0 0
                    }
                  }
                }
              }
            }
            JOINT Neck
            {
              OFFSET 5.0226 -0.0266342 0
              CHANNELS 3 Zrotation Xrotation Yrotation
              JOINT Head
              {
                OFFSET 6.69363 2.86102e-005 0
                CHANNELS 3 Zrotation Xrotation Yrotation
                End Site
                {
                  OFFSET 0 0 0
                }
              }
            }
          }
        }
      }
    }
  }
}
MOTION
Frames:	9
Frame Time:	0.0416667
-45.5497 22.9608 -59.998 -9.45408 -24.5289 39.6163 -166.649 -2.15935 89.9208 -8.02261 -3.42081 -1.28853 37.7519 -5.91808 -1.98555 42.8134 15.1132 32.4145 128.192 67.4494 99.1525 -104.481 -1.21991 -1.20913 55.0236 -0.632299 -0.290461 47.7379 -1.20435 -21.106 1.64053 7.3856 -91.5803 12.1324 2.51396 -3.43112 0.45902 2.36062 -3.5383 -22.0737 3.42859 -2.51737 -2.06104 3.4286 -2.51739 90.5768 -29.3628 -105.85 -10.9886 4.82199 -16.1073 -26.8929 14.8247 -123.124 -56.1737 -2.65551 1.19723 -80.7563 -23.4955 90.5703 -26.2543 -41.204 -45.3021 38.9452 -16.5339 -121.61 23.0204 5.66379 20.7793 -0.428386 1.12889 20.7161 46.8429 -4.98711 -6.77394 
-44.4707 23.7596 -55.7322 -4.97037 -22.3538 41.8284 -166.478 -0.648577 92.9913 -8.00433 -2.18067 -1.33228 27.0672 -13.3888 -8.52823 34.0761 3.29478 30.4467 147.586 56.1355 80.2799 -91.5505 -11.2681 2.00464 58.1178 -0.464072 -0.108023 58.3313 -2.38052 -19.5933 1.55473 7.25648 -90.917 12.3834 2.65407 -2.13105 0.713149 2.55773 -2.24578 -21.8378 3.17169 -1.23449 -1.82515 3.17169 -1.23449 94.8709 -14.6602 -101.914 6.4293 37.001 -26.8623 -16.6185 1.7578 -120.397 -44.7442 -0.159065 -3.47513 -82.7962 -24.5664 86.3734 -18.3891 -25.648 -47.0573 47.6356 -23.9753 -116.44 21.1102 5.47535 21.9331 3.61822 0.144868 15.9432 42.3543 -5.59896 -7.18023 
-42.4317 23.325 -49.8095 0.681697 -18.83 47.6725 -163.549 1.30214 100.042 -11.7687 2.23374 -1.16723 30.9314 -12.2305 -7.41755 28.2696 -1.80927 11.4974 155.385 37.6174 75.3498 -68.8007 0.770933 6.25222 73.8355 -5.0863 -2.51376 58.6131 -1.4054 -14.6679 1.36382 7.21593 -90.4954 12.4556 2.47409 -1.27488 0.786204 2.4156 -1.38259 -21.7668 2.74281 -0.471901 -1.75413 2.74282 -0.471897 97.0055 -1.0259 -102.479 26.2229 53.7209 -42.7952 -10.516 -6.72049 -104.213 -33.5062 0.375905 -5.89103 -87.5164 -29.3345 77.9064 -5.67364 -13.934 -46.6188 54.0385 -30.056 -111.538 16.2579 3.99786 20.1914 8.12418 -1.61109 9.28779 37.8821 -5.82339 -6.30313 
-40.3768 22.7275 -43.6193 6.46391 -13.6743 53.0167 -161.221 12.1926 107.019 -30.0504 -0.384217 -2.41159 44.0212 -7.41929 -2.71416 37.9356 7.27424 3.63899 160.967 20.4317 75.5502 -42.5383 15.0249 6.08647 77.3083 -5.37657 -2.51076 58.6404 -1.6214 -15.7074 0.831717 7.20389 -89.8942 12.4684 1.70304 0.0179411 0.79857 1.70218 -0.0570614 -21.7448 1.61887 0.529089 -1.73215 1.61888 0.529086 98.558 8.66623 -102.397 30.8859 54.2858 -47.767 -5.17934 2.05885 -80.3461 -26.7178 0.593833 -7.86363 -93.1602 -31.7416 68.0536 4.52031 -4.42119 -41.2158 58.5623 -34.783 -108.585 19.29 4.99221 21.6509 12.1738 -3.86628 1.8181 33.7214 -6.21288 -6.05993 
-38.6796 22.5309 -36.3487 10.4424 -3.41082 57.2562 -161.666 30.5958 112.437 -55.0371 8.84998 -2.87913 52.8651 -3.37319 2.58054 47.6867 15.0295 1.62979 165.625 10.3154 80.6843 -28.3912 9.16714 1.85825 64.4837 -2.84512 -1.5555 58.3912 -1.3395 -14.3819 0.309197 7.04678 -89.2504 12.7725 0.972637 1.38264 1.10127 1.03254 1.3385 -21.429 0.512184 1.61097 -1.41638 0.512198 1.61098 99.0723 2.34247 -95.6567 40.2166 52.696 -51.2761 -5.16364 1.12986 -85.0543 -28.7582 0.51971 -7.41985 -101.295 -36.4032 56.1169 9.97345 -4.71448 -35.3107 57.8771 -37.8137 -110.626 23.8907 6.58214 23.6881 15.146 -8.59073 -8.49039 31.2926 -6.81693 -2.20781 
-36.8866 21.5628 -28.3993 15.8428 8.61873 59.0361 -163.187 51.3275 114.657 -81.8087 16.2126 -1.27284 59.5314 2.16892 7.1445 49.2675 17.5578 8.05179 169.804 3.73359 85.3283 -21.2786 2.4958 -0.977692 53.7657 -2.14745 -1.21447 50.1706 0.0169383 -3.63448 -0.829848 7.13042 -88.6247 12.6177 -0.992294 2.86425 0.94388 -0.865329 2.90511 -21.5752 -1.80704 2.43404 -1.56251 -1.80702 2.43402 98.9503 -16.667 -91.8083 48.6166 52.7338 -56.9448 -16.0621 -1.23941 -103.678 -22.9538 -0.312673 -3.24129 -103.702 -37.7283 52.9132 19.4692 2.53155 -33.1528 58.2133 -41.5269 -109.873 21.3137 5.9557 23.9069 13.2892 -11.8697 -13.6877 31.2238 -9.09623 -2.69303 
-35.9906 19.3459 -20.8689 17.5407 14.5601 58.8231 -151.961 71.2429 108.831 -101.284 27.5427 0.460311 62.289 4.61588 10.3371 53.4567 22.9622 14.1634 173.359 3.08447 87.7469 -19.3547 -2.86776 -2.80658 46.5296 -1.76191 -0.924324 29.61 -0.45575 13.9337 -1.33651 6.9271 -87.9937 13.037 -1.68952 4.20833 1.3601 -1.50284 4.27843 -21.1435 -2.87553 3.50732 -1.13082 -2.87553 3.50731 98.4968 -26.4558 -89.9508 48.44 55.5192 -52.2084 -14.7132 -0.877022 -113.738 -19.8226 -0.102165 -4.1704 -106.022 -39.1874 50.0601 26.8978 9.69909 -27.9708 60.1804 -45.2645 -108.511 21.5026 6.06995 24.1917 7.85274 -12.7067 -20.6916 35.3306 -8.55596 -0.661121 
-35.7161 18.1401 -15.8396 20.3496 16.2372 54.787 -107.639 79.8037 64.9526 -115.708 34.2795 3.37991 61.2399 3.62611 12.6517 55.6749 26.0498 16.9129 174.506 3.42523 86.8331 -22.9787 -13.144 -5.83562 42.5109 0.224492 0.796214 26.4389 -0.733155 7.14039 -1.69878 7.07917 -87.2399 12.7392 -2.05499 5.76615 1.05678 -1.79966 5.8506 -21.413 -3.69108 4.88532 -1.40038 -3.69106 4.88534 98.3926 -28.7123 -89.9687 50.2589 55.2575 -45.9511 -15.6814 -1.58878 -122.591 -21.2996 0.0585088 -4.67208 -105.561 -39.9603 51.1921 28.5223 12.6541 -23.5553 49.7424 -46.2743 -117.539 25.5143 6.82813 23.0547 7.21901 -13.077 -22.9428 36.1634 -8.59739 -0.549406 
-35.0003 18.3248 -13.7275 20.9992 12.2627 51.9645 -101.85 79.5924 58.9231 -117.693 32.497 4.10484 56.6234 -1.1242 9.33705 53.4511 25.148 21.1698 174.584 3.62488 85.6416 -26.3967 -15.6318 -7.95011 39.6261 2.06488 2.56394 22.2833 -0.556957 1.88395 -1.8523 7.15349 -86.8118 12.588 -2.16051 6.62083 0.90159 -1.86769 6.70896 -21.5425 -4.0475 5.67042 -1.52987 -4.04751 5.67042 97.5501 -26.0567 -92.1766 54.7043 48.7506 -43.4783 -16.9827 0.495362 -127.473 -22.3995 -0.723858 -0.657995 -107.157 -43.6026 50.6974 29.123 13.0893 -13.1072 44.9485 -49.4598 -124.177 29.9337 7.0328 19.8845 8.20047 -11.5753 -20.0665 33.6657 -8.62663 -3.815 
